<svg width="100%" height="100%" viewBox="0 0 24 24" fill="none" xmlns="http://www.w3.org/2000/svg">
<path fill-rule="evenodd" clip-rule="evenodd" d="M12 2C12.5523 2 13 2.44772 13 3V4.07114C14.2984 4.257 15.5201 4.80282 16.4827 5.65848C17.6934 6.73462 18.4 8.22119 18.4 9.8C18.4 11.6119 18.8079 12.9241 19.305 13.858L19.314 13.8751C19.6751 14.5534 19.9568 15.0827 20.145 15.4615C20.239 15.6508 20.3211 15.8255 20.3801 15.9739C20.4093 16.0475 20.4412 16.1354 20.4652 16.2281C20.4829 16.296 20.5276 16.4767 20.4996 16.6927C20.4855 16.8011 20.454 17.0398 20.31 17.2795C20.1661 17.5192 19.9702 17.6592 19.8811 17.7226C19.7237 17.8345 19.5675 17.8822 19.4899 17.9033C19.3981 17.9281 19.3091 17.9428 19.2352 17.9525C19.0874 17.9719 18.9156 17.9818 18.7365 17.9879C18.3796 18 17.8808 18 17.2525 18H6.74752C6.11915 18 5.62036 18 5.26344 17.9879C5.08439 17.9818 4.91253 17.9719 4.7648 17.9525C4.69091 17.9428 4.60183 17.9281 4.51008 17.9033C4.43249 17.8822 4.27625 17.8345 4.11886 17.7226C4.02976 17.6592 3.83389 17.5192 3.68996 17.2795C3.54602 17.0398 3.51443 16.8011 3.50038 16.6927C3.4724 16.4767 3.51709 16.296 3.53474 16.2281C3.55881 16.1354 3.59071 16.0475 3.61992 15.9739C3.67885 15.8255 3.76101 15.6508 3.85502 15.4615C4.04313 15.0827 4.32484 14.5534 4.68591 13.8751L4.69499 13.858C5.19209 12.9241 5.59999 11.6119 5.59999 9.8C5.59999 8.22119 6.30659 6.73462 7.51725 5.65848C8.47986 4.80282 9.70159 4.257 11 4.07114V3C11 2.44772 11.4477 2 12 2ZM12 6C10.7975 6 9.66454 6.42568 8.84597 7.1533C8.03124 7.8775 7.59999 8.83273 7.59999 9.8C7.59999 11.9262 7.11771 13.563 6.46046 14.7978C6.19873 15.2895 5.98837 15.6848 5.82609 15.9979C6.08405 16 6.39581 16 6.76976 16H17.2302C17.6042 16 17.9159 16 18.1739 15.9979C18.0116 15.6848 17.8012 15.2895 17.5395 14.7978C16.8823 13.563 16.4 11.9262 16.4 9.8C16.4 8.83273 15.9687 7.8775 15.154 7.1533C14.3354 6.42568 13.2025 6 12 6ZM8.60425 19.3383C8.96972 18.9242 9.60166 18.8848 10.0157 19.2503C10.5463 19.7185 11.2409 20.0016 12.004 20.0016C12.7671 20.0016 13.4617 19.7185 13.9923 19.2503C14.4063 18.8848 15.0383 18.9242 15.4037 19.3383C15.7692 19.7523 15.7298 20.3843 15.3157 20.7497C14.4338 21.5281 13.273 22.0016 12.004 22.0016C10.735 22.0016 9.57418 21.5281 8.69226 20.7497C8.27819 20.3843 8.23879 19.7523 8.60425 19.3383Z" fill="currentColor"/>
</svg>
